<?xml version="1.0" encoding="UTF-8"?>
<svg id="Layer_1" xmlns="http://www.w3.org/2000/svg" version="1.1" viewBox="0 0 200 80">
  <!-- Generator: Adobe Illustrator 29.6.1, SVG Export Plug-In . SVG Version: 2.1.1 Build 9)  -->
  <defs>
    <style>
      .st0 {
        fill: #fff;
      }
    </style>
  </defs>
  <rect width="200" height="80"/>
  <g>
    <path d="M72.46,69.57c-2.99,0-5.46-.01-7.15-.04-.07,0-.19-.06-.25-.11V12.04c0-1.14.07-1.45.14-1.52h0s.11-.09.72-.09h58.87c29.05,0,47.2.55,53.95,1.63,4.83.77,6.95,2.4,8.12,6.23,1.23,4.03,2.86,32,0,43.4-.83,3.31-4.3,5.78-8.82,6.3-7.56.86-42.16,1.2-53.24,1.21-2.61,0-8.48.06-15.61.12-12.02.11-26.99.24-36.72.24h0Z"/>
    <path class="st0" d="M124.79,11.43c29,0,47.09.54,53.79,1.62,4.48.72,6.26,2.06,7.32,5.54,1.21,3.98,2.82,31.6-.03,42.86-.73,2.9-3.86,5.08-7.96,5.55-7.52.86-42.07,1.19-53.13,1.21-2.62,0-8.35.06-15.6.12-12.02.11-26.99.24-36.72.24-2.7,0-4.85-.01-6.41-.03V11.43h58.72M124.79,9.43h-58.87c-.74,0-1.16.11-1.44.39-.35.36-.42.93-.42,2.22v57.45c0,.62.75,1.02,1.23,1.03,1.7.03,4.18.04,7.18.04,15.63,0,45.39-.35,52.32-.36,8.25-.01,45.24-.29,53.35-1.22,4.88-.56,8.71-3.25,9.67-7.05,2.86-11.35,1.37-39.44,0-43.93-1.37-4.49-4.07-6.15-8.92-6.93-10.25-1.64-44.4-1.64-54.11-1.64h.01Z"/>
  </g>
  <g>
    <path d="M55.1,69.56c-13.6,0-31.08-.88-34.7-1.56-5.23-1.36-8.16-3.43-8.89-6.31-2.88-11.39-1.24-39.36-.01-43.4,1.18-3.86,3.39-5,8.21-6.25,4.18-.78,20.08-1.61,39.33-1.61.62,0,.72.09.73.1.05.06.13.37.13,1.51v57.37c-.06.05-.19.11-.25.11-1.44.03-2.96.04-4.55.04Z"/>
    <path class="st0" d="M58.89,11.43v57.11c-1.19.02-2.47.03-3.81.03-13.22,0-30.79-.87-34.44-1.53-4.87-1.27-7.54-3.1-8.17-5.58-2.84-11.26-1.24-38.88-.03-42.86,1.02-3.36,2.76-4.34,7.44-5.56,3.65-.67,18.05-1.59,38.99-1.6M59.04,9.43c-20.05,0-35.49.87-39.58,1.64-4.76,1.23-7.55,2.44-8.92,6.93s-2.86,32.59,0,43.93c.96,3.8,4.92,5.82,9.67,7.05,3.71.7,21.37,1.58,34.88,1.58,1.59,0,3.13-.01,4.57-.04.48,0,1.23-.41,1.23-1.03V12.04c0-1.29-.07-1.86-.42-2.22-.28-.28-.69-.39-1.43-.39h0Z"/>
  </g>
  <rect class="st0" x="137.19" y="20.08" width="7.58" height="32.64"/>
  <path class="st0" d="M148.99,52.54c-.2-.2-1.24-3.89-1.29-4.38-.48-4.95.31-10.72.06-15.76.31-.6,1.05-2.69,1.61-2.87l5.93-.03c.5.27.63.85.42,1.35-1.11,2.54-3.05,4.95-3.56,7.66.92,4.15,2.76,8.28,3.72,12.39.17.74.54,1.68-.55,1.83-1.22.16-4.33.11-5.61,0-.22-.02-.58-.02-.73-.18h0Z"/>
  <rect class="st0" x="94.77" y="29.46" width="7.72" height="30.4"/>
  <path class="st0" d="M106.22,29.22c1.06-.24,3.34.17,4.34.64,2.95,1.4,3.03,5.52,3.13,8.35.07,1.83.07,3.93,0,5.75-.13,3.54-.24,7.6-4.34,8.68-.95.25-3.37.82-3.79-.27l-.13-22.13c0-.46.34-.91.8-1.02h0Z"/>
  <path class="st0" d="M123.3,29.51c.18.16.32.74.32,1.01v21.43c-.23,1.9-3.88.25-4.81-.38-3.61-2.42-3.2-9.29-3.04-13.21.14-3.35.49-6.73,3.93-8.25.64-.28,3.09-1.07,3.6-.59h0Z"/>
  <path class="st0" d="M127.5,29.36c2.19-.2,5.01,1.7,5.92,3.68,1.17,2.56,1.03,9.49.84,12.47-.21,3.41-1.45,5.86-4.85,6.91-.8.25-2.58.88-2.73-.33l.13-22.42c.1-.13.5-.29.67-.31h.02Z"/>
  <path class="st0" d="M84.51,45.06c-.7-.63-3.24-1.08-4.26-1.41-4.31-1.39-5.96-3.37-5.64-8.09.2-2.87,1.24-4.95,4.1-5.84.75-.23,2.84-.86,3.05.25.25,1.53-.43,5.37.28,6.58.55.95,4.24,1.44,5.44,1.84,3.58,1.21,5,3.62,4.79,7.39-.15,2.65-1.06,5.04-3.54,6.26-.7.34-3.14,1.22-3.66.53s-.06-5.52-.21-6.79c-.03-.23-.16-.57-.33-.72h-.02Z"/>
  <path class="st0" d="M81.58,52.68c-2.75.55-5.79-.62-6.83-3.39-.48-1.29-1.17-3.01.65-3.28,1.34-.2,4-.48,5.31-.45.6.02.97.12,1.06.77.16,1.22.11,4.33,0,5.61-.02.26-.02.51-.18.73h0Z"/>
  <path class="st0" d="M85.64,29.36c.6-.13,2.27.32,2.87.57,1.68.68,2.74,2.1,3.14,3.86.29,1.27.51,2.01-1.02,2.25-1.22.19-3.55.45-4.74.45-.7,0-.97-.19-1.05-.92-.12-1.07-.14-4.28,0-5.33.05-.42.39-.79.81-.88h-.01Z"/>
  <g>
    <path class="st0" d="M26.65,34.2c-.34-2.03.57-4.64,1.88-5.15,1.19-.47,3.6.13,5.09,1.13.64.43.91.71.98,1.55.13,1.55.05,5.15-.1,6.57-.08.78-.46.8-1.16.5-1.22-.52-4.25-2.2-5.46-3.03-.49-.33-1.11-.87-1.22-1.56h-.01Z"/>
    <path class="st0" d="M25.01,45.37c-1.93-.72-3.73-2.82-3.52-4.2.19-1.26,1.91-3.05,3.52-3.85.69-.34,1.07-.44,1.83-.07,1.4.66,4.48,2.53,5.63,3.37.63.46.46.79-.15,1.25-1.06.79-4.03,2.58-5.36,3.22-.53.25-1.31.52-1.96.28h.01Z"/>
    <path class="st0" d="M33.87,52.38c-1.59,1.31-4.3,1.82-5.4.95-1-.8-1.68-3.18-1.57-4.97.05-.77.16-1.14.85-1.62,1.28-.88,4.43-2.61,5.74-3.19.72-.32.92,0,1.01.75.16,1.31.22,4.78.11,6.25-.04.59-.2,1.39-.74,1.84h0Z"/>
    <path class="st0" d="M45.6,48.22c.34,2.03-.57,4.64-1.88,5.15-1.19.47-3.6-.13-5.09-1.13-.64-.43-.91-.71-.98-1.55-.13-1.55-.05-5.15.1-6.57.08-.78.46-.8,1.16-.5,1.22.52,4.25,2.2,5.46,3.03.49.33,1.11.87,1.22,1.56h.01Z"/>
    <path class="st0" d="M47.24,37.04c1.93.72,3.73,2.82,3.52,4.2-.19,1.26-1.91,3.05-3.52,3.85-.69.34-1.07.44-1.83.07-1.4-.66-4.48-2.53-5.63-3.37-.63-.46-.46-.79.15-1.25,1.06-.79,4.03-2.58,5.36-3.22.53-.25,1.31-.52,1.96-.28h0Z"/>
    <path class="st0" d="M38.39,30.03c1.59-1.31,4.3-1.82,5.4-.95,1,.8,1.68,3.18,1.57,4.97-.05.77-.16,1.14-.85,1.62-1.28.88-4.43,2.61-5.74,3.19-.72.32-.92,0-1.01-.75-.16-1.31-.22-4.78-.11-6.25.04-.59.2-1.39.74-1.84h0Z"/>
  </g>
  <g>
    <path class="st0" d="M164.71,51.76c-.34,1.58-3.78.08-4.67-.46-1.86-1.14-2.7-3.38-2.86-5.5-.19-2.52-.29-9.37.36-11.59.69-2.38,2.27-3.76,4.64-4.4.91-.25,2.36-.73,2.54.64.29,2.23-.26,5.02.02,7.31.21.63,2.54.74,2.71-.14.19-2.22-.26-4.83,0-6.99.04-.38.14-.67.42-.95.58-.41,1.65-.04,2.28.14,3.56.99,4.59,3.89,4.83,7.29.08,1.11.19,4.32,0,5.28-.07.36-.63.77-.94.77h-9.06l-.26.26v8.35Z"/>
    <path class="st0" d="M174.58,45.24c.63.63-.13,3.03-.49,3.77-.9,1.86-3.32,3.27-5.36,3.35-1.04.04-1.2-.08-1.29-1.11-.11-1.29-.16-4.41,0-5.64.08-.62.54-.96,1.13-1.09.91.32,5.61.3,6.02.72Z"/>
  </g>
</svg>